HIERARCHY
ROOT simHips
{
  OFFSET -201.971 99.875 1.0017
  CHANNELS 6 Xposition Yposition Zposition Zrotation Xrotation Yrotation
  JOINT simSpine
  {
    OFFSET -0.000355721 21.3001 -0.016921
    CHANNELS 3 Zrotation Xrotation Yrotation
    JOINT simLeftArm
    {
      OFFSET 13.5181 21.3012 0
      CHANNELS 3 Zrotation Xrotation Yrotation
      JOINT simLeftForeArm
      {
        OFFSET 24.5783 0 0
        CHANNELS 3 Zrotation Xrotation Yrotation
        JOINT simLeftHand
        {
          OFFSET 24.5783 0 0
          CHANNELS 3 Zrotation Xrotation Yrotation
          End Site
          {
            OFFSET 7.32568 1.52588e-05 0.0169305
          }
        }
      }
    }
    JOINT simHead
    {
      OFFSET 0 27.4458 -0.00489235
      CHANNELS 3 Zrotation Xrotation Yrotation
      End Site
      {
        OFFSET 0 0 0
      }
    }
    JOINT simRightArm
    {
      OFFSET -13.5174 21.3012 0
      CHANNELS 3 Zrotation Xrotation Yrotation
      JOINT simRightForeArm
      {
        OFFSET -24.5783 0 0
        CHANNELS 3 Zrotation Xrotation Yrotation
        JOINT simRightHand
        {
          OFFSET -24.5783 0 0
          CHANNELS 3 Zrotation Xrotation Yrotation
          End Site
          {
            OFFSET -7.32568 1.52588e-05 0.0169305
          }
        }
      }
    }
  }
  JOINT simRightUpLeg
  {
    OFFSET -8.44614 -9.41038 0.835684
    CHANNELS 3 Zrotation Xrotation Yrotation
    JOINT simRightLeg
    {
      OFFSET 0 -40.9639 0
      CHANNELS 3 Zrotation Xrotation Yrotation
      JOINT simRightFoot
      {
        OFFSET 0 -40.9639 0
        CHANNELS 3 Zrotation Xrotation Yrotation
        End Site
        {
          OFFSET 0.50614 -9.67405 14.6709
        }
      }
    }
  }
  JOINT simLeftUpLeg
  {
    OFFSET 8.44614 -9.41038 0.835684
    CHANNELS 3 Zrotation Xrotation Yrotation
    JOINT simLeftLeg
    {
      OFFSET 0 -40.9639 0
      CHANNELS 3 Zrotation Xrotation Yrotation
      JOINT simLeftFoot
      {
        OFFSET 0 -40.9639 0
        CHANNELS 3 Zrotation Xrotation Yrotation
        End Site
        {
          OFFSET -0.50614 -9.67405 14.6709
        }
      }
    }
  }
}
MOTION
Frames:	19
Frame Time:	0.0333333
32.9922 97.3313 -0.609548 1.25646 -1.19289 84.902 2.11088 10.0321 -2.92099 -29.6053 -28 16.8929 22.2848 -3.74802 -27.5016 5.47847 -37.5767 -15.4579 8.02418 -10.6202 -10.9776 43.9424 -32.1255 -8.07394 -18.5011 -11.4282 52.8906 2.78044 -7.28446 15.6044 -7.24537 -4.59437 0.887635 7.25476 39.6945 -3.72039 8.71595 -18.1109 5.57086 15.6363 -16.7394 18.2676 -0.189773 14.4295 -0.0528137 2.88338 10.9612 6.42063 
26.9474 99.6731 -0.368573 -3.87348 -1.57611 87.5737 3.58682 13.2426 -1.63438 -22.1919 -38.4016 29.6114 23.1617 -4.02941 -28.625 4.79228 -35.1209 -14.3209 4.862 -27.145 -12.2629 27.4904 -40.4545 -23.4037 -21.7966 -14.4393 64.4743 4.96833 -7.52169 15.6695 -4.22703 -5.89523 -4.26509 3.1709 23.7732 -1.14222 5.85256 -12.2413 3.17415 15.0426 -19.9255 19.3435 0.167196 0.0280247 -0.231385 -3.90364 26.0922 -1.57003 
20.4256 102.318 -0.0961903 -7.63959 1.7312 89.8065 -0.299183 16.3742 -0.0572408 -17.0913 -41.1063 36.9806 28.0993 -6.22292 -35.6411 3.80998 -36.8488 -15.9032 4.29631 -35.7563 -13.7742 12.1357 -44.8159 -32.1843 -24.2525 -17.7286 75.1284 7.68639 -9.63424 17.3296 -6.67423 -8.77799 -6.99292 1.21155 12.0721 -0.101298 6.99168 -1.08817 2.93412 9.86562 -25.7979 10.1476 0.188845 2.42046 -0.976142 -15.9689 29.2117 -4.70504 
13.7674 104.572 0.0838235 -8.04378 4.86374 89.9543 -3.58386 19.1509 3.38406 -12.8348 -38.4402 30.9018 32.8085 -8.44147 -41.2068 6.54744 -37.2892 -15.1715 -1.04781 -26.6259 -18.9972 -3.98819 -38.9699 -22.7948 -25.128 -19.2868 79.7844 6.70638 -7.90392 18.1251 -9.18567 -9.40888 -9.01907 -0.108533 2.04225 0.409191 9.27177 11.8051 3.03368 3.85353 -23.4742 0.416298 0.0327411 4.79082 -0.355684 -10.2131 32.8154 -6.06916 
8.1624 106.099 -0.135596 -5.89723 5.31516 85.6903 -2.32706 18.4644 10.0033 -9.37609 -27.1388 11.4752 33.742 -9.00817 -42.4564 4.97634 -35.9826 -19.0208 -11.8563 2.3698 -20.1424 -21.1225 -23.9811 3.76659 -23.2516 -16.2386 70.4724 7.20552 0.103173 22.1582 -8.95315 -11.8979 -7.79289 -0.61626 2.53562 0.786575 12.5184 15.1001 2.78525 2.67698 -17.2845 -4.62552 0.0632909 4.39271 -0.292178 -7.61497 30.8329 -4.98407 
3.80277 106.832 0.237862 -4.41815 4.245 82.8447 0.215601 15.763 16.501 -4.20957 -13.1688 -14.5203 32.8726 -8.48695 -41.3077 4.87518 -35.8291 -23.3228 -16.2993 21.9812 -10.5507 -28.5769 -16.3431 37.2258 -17.4643 -10.7021 49.6173 6.19859 21.8945 18.9625 -6.55462 -11.3168 -5.4056 -0.130241 3.57856 0.612718 10.4594 16.3932 5.54597 3.75713 -14.4347 0.233876 0.235456 2.63548 -0.604418 -6.76783 27.028 -4.08535 
-1.01525 106.476 1.2053 -3.42126 5.90304 89.3804 -1.38029 15.9931 15.0957 10.4297 -6.56059 -38.4889 34.0172 -9.18034 -42.8264 9.11442 -37.2688 -22.2608 -9.46146 14.804 -6.42854 -15.1752 -18.2232 70.5139 -8.11079 -7.17262 23.0769 0.5145 43.3774 7.63433 -8.0066 -9.45757 -3.20161 0.236915 5.04634 0.371165 6.78893 13.848 5.74135 -0.0162866 -14.9656 -0.465248 0.235796 3.23355 -0.77948 -9.16999 27.3615 -7.71381 
-5.91959 105.105 2.0642 -3.50449 5.51221 102.824 0.817528 17.9982 10.7605 24.6809 -15.6292 -65.9572 31.8589 -7.8917 -39.9417 8.37027 -37.1021 -23.2745 -5.5193 -10.2884 -2.30645 -2.39294 -15.3971 90.2014 -1.0989 -7.38696 4.40795 -3.36995 37.9096 -2.17823 -8.86393 -7.34181 -9.97562 -0.0281591 2.11517 0.394963 7.1997 12.9831 1.11071 -3.38238 -17.7765 -9.28327 0.182225 3.95119 -0.64379 -10.0869 28.9751 -10.4429 
-10.6009 103.657 2.23903 -4.21838 4.08484 113.933 5.14871 19.932 5.08857 22.8863 -30.1115 -94.6576 27.4004 -5.65887 -34.0889 7.04577 -26.0557 -24.0723 -7.24808 -43.3085 2.50145 -3.16888 -6.44696 100.437 -1.7975 -7.26286 6.28548 -0.90007 46.0344 0.569751 -10.3419 -8.28496 -12.0895 -0.00711585 2.08342 0.361649 8.98193 10.7635 -5.26105 -6.16675 -21.3168 -12.077 0.0775485 5.03495 -0.708781 -16.3914 29.4745 -9.31742 
-15.0373 102.351 2.59644 -4.74871 3.63139 118.943 5.30083 21.6247 -2.3769 15.2954 -30.0565 -120.408 23.9471 -4.29671 -29.6305 8.46265 -20.1033 -21.4884 22.2987 -69.1869 22.4244 -9.7356 1.80066 111.653 -6.45358 -7.01807 18.6654 -8.58312 36.4207 11.7353 -12.6088 -11.4961 -12.2956 0.248839 4.88508 0.175221 8.30292 8.65506 -7.82021 -8.20205 -25.6765 -12.3979 -0.204812 15.6878 -0.835219 -18.5921 18.8084 -8.41234 
-19.7395 100.265 2.80529 -3.31475 3.37561 118.288 4.76158 24.1098 -5.76633 19.4237 -21.6707 -123.944 29.9913 -6.88845 -37.4746 3.59262 -26.2029 -26.3482 51.1898 -67.4237 30.6678 -14.3725 6.15077 122.992 -10.6809 -7.66968 30.004 -6.93958 39.0746 14.54 -13.6375 -17.0757 -11.5421 1.07584 12.4782 -0.172124 5.27793 5.60869 -8.26089 -7.02325 -29.8965 -12.6042 -1.28616 34.3925 -0.168748 -9.83641 7.58743 -7.96475 
-24.9103 97.6321 2.73971 -0.213571 3.82215 115.044 4.08198 27.0445 -6.04379 28.6184 -14.1725 -113.519 38.054 -11.9927 -48.3403 -4.08084 -30.0333 -34.267 38.8665 -53.8967 2.52269 -14.1781 18.3782 127.347 -15.5977 -9.58101 43.9071 -4.39848 39.0509 16.182 -13.7572 -20.9392 -8.95598 1.77978 18.0131 -0.515741 3.27822 4.97277 -7.76422 -4.68189 -29.8544 -11.6011 -1.71386 51.4186 0.480095 -2.55616 0.565438 -2.26783 
-30.6554 95.589 2.26103 4.78966 3.90907 110.647 4.29486 30.5977 -7.35307 32.6992 -3.19694 -101.755 38.4101 -12.2686 -48.837 -6.38432 -34.5535 -35.1034 27.5439 -28.7625 -16.6944 -13.2828 33.74 120.597 -21.5911 -14.2176 63.697 0.0896728 33.5685 17.101 -12.1833 -20.904 -5.42936 1.81051 18.3573 -0.465714 4.27754 6.99035 -6.22937 -2.25702 -25.1846 -12.0408 -2.4475 64.6072 1.31846 2.04373 -5.90522 1.50793 
-36.3433 94.4838 1.53296 7.29269 3.66864 104.571 1.53446 32.0551 -6.72221 31.1207 5.96862 -90.183 32.617 -8.32806 -40.9502 -2.13345 -33.4619 -29.5705 21.435 2.02622 -25.5747 -9.37593 40.3355 101.331 -25.1499 -19.33 79.9112 -0.115387 28.0626 17.3961 -10.3191 -21.2202 -1.51818 1.29617 14.3685 -0.264025 3.12511 8.19715 -5.48102 -1.25799 -19.765 -12.951 -2.96501 69.2425 1.74155 1.273 -8.22128 3.41943 
-42.3223 93.3135 1.05169 6.21275 2.00657 98.0944 -1.61417 31.2107 -6.69126 24.1374 10.2964 -74.2745 24.162 -4.37265 -29.9067 0.257984 -30.0864 -24.8339 13.3724 25.4935 -24.8021 -2.6296 38.3004 79.1554 -25.5884 -20.2451 82.567 0.716328 18.633 18.092 -8.04922 -26.4898 -1.76758 1.20197 13.1515 -0.32671 1.47905 3.83363 -4.87882 0.967754 -14.033 -13.9374 -1.92481 57.5602 0.749776 1.04733 -23.9808 0.277372 
-49.3862 91.7719 1.05357 4.36701 1.09033 92.3406 -6.39397 33.126 -5.70655 14.7294 4.04835 -55.6379 15.6537 -2.21357 -19.0926 3.67354 -31.4888 -19.8014 5.07617 35.7521 -16.3816 0.0172317 29.5006 61.7258 -23.7277 -16.9157 72.6169 1.69238 13.0174 18.6487 -6.61488 -35.9455 -0.685246 2.42808 22.2132 -0.889428 2.34493 1.99581 -9.87497 3.32639 -16.6973 -7.82322 -1.66868 52.1025 0.534675 1.58258 -29.3858 1.50796 
-56.759 90.6389 1.65588 2.22175 -0.341859 92.1148 -7.63124 37.7433 -5.03142 7.50053 -11.584 -41.9711 8.57956 -1.6717 -10.2187 10.0474 -39.9546 -11.8179 1.1389 35.1329 -11.9944 -0.031793 20.8158 46.5711 -18.4175 -11.3665 52.6227 0.405226 10.0061 16.9912 -7.33755 -44.0633 3.27875 6.75599 38.4043 -3.52858 1.19279 1.01317 -9.3192 6.30613 -27.0622 -3.81987 -1.84171 56.28 0.739197 2.82684 -26.2898 0.442634 
-62.6466 90.1258 2.23489 -0.0351796 -2.54561 94.711 -3.97208 40.9069 -3.02577 6.61944 -11.06 -29.2414 4.6971 -1.84104 -5.32292 17.109 -52.5221 -6.88293 -1.2432 32.9848 -13.3509 -2.09068 18.5015 32.6306 -8.5844 -7.24073 24.3553 -1.0024 4.34597 12.6231 -10.7605 -46.9546 2.63165 12.5164 54.5635 -8.36469 0.851721 -1.4906 -9.89935 9.01057 -35.6911 -3.77808 -1.89843 57.1152 0.683603 0.0528278 -21.1011 -3.77693 
-67.0663 90.2615 3.02795 -2.64566 -1.36466 96.3049 -5.0911 41.7196 2.93009 -2.77157 -1.16502 -18.444 6.66662 -1.71348 -7.7891 10.4199 -54.1353 -13.8721 -0.619209 29.9138 -17.5616 -0.730508 28.5341 17.6257 -0.0137335 -1.73006 0.304761 -3.67016 -4.92521 4.47506 -18.3827 -43.7551 1.20028 20.2601 65.3024 -15.5612 -2.60479 -1.33957 -15.0624 6.51326 -39.1549 -7.20242 -1.68732 51.1931 0.225689 -6.29419 -15.4479 -3.78531 
